<svg width="12" height="13" viewBox="0 0 12 13" fill="none" xmlns="http://www.w3.org/2000/svg">
<path d="M11.9519 5.48161C12.0653 5.83579 11.9771 6.11408 11.6998 6.32912L8.84996 8.5061L9.94653 12.0492C10.0852 12.5426 9.71965 12.9979 9.2659 12.9979C9.11465 12.9979 8.976 12.9473 8.84996 12.8461L6.00015 10.6704L3.15033 12.8474C2.83523 13.0624 2.40668 12.9992 2.1672 12.6956C2.01595 12.4932 1.97814 12.2782 2.06637 12.0505L3.15033 8.53266L0.287913 6.32912C0.0232244 6.11408 -0.0650052 5.83579 0.0484328 5.48161C0.149267 5.17802 0.413955 4.97563 0.703852 4.97563H4.23429L5.33086 1.45781C5.41909 1.16687 5.68378 0.964478 5.98628 0.964478C6.30139 0.964478 6.57868 1.17952 6.66691 1.48311L7.76348 4.97563H11.2939C11.5863 4.97563 11.851 5.17802 11.9519 5.48161Z" fill="#008489"/>
</svg>
