<svg width="30" height="32" viewBox="0 0 30 32" fill="none" xmlns="http://www.w3.org/2000/svg">
<path fill-rule="evenodd" clip-rule="evenodd" d="M28.1325 19.9064C28.6623 21.0013 29.0861 21.9197 29.3334 22.6967C31.1347 27.6451 27.4261 31.993 22.9369 31.9894C22.9016 31.9894 22.7603 31.9894 22.5837 31.9541H22.0892C19.7581 31.6715 17.3528 30.1846 14.9157 27.5356C12.4786 30.1881 10.0733 31.6715 7.74222 31.9541H7.24774C7.07114 31.9894 6.92986 31.9894 6.89454 31.9894C2.40535 31.9894 -1.30325 27.6451 0.49807 22.6967C0.53339 22.5908 0.67467 22.2376 0.957231 21.5665L1.69895 19.9417V19.8711C4.20668 14.5342 6.54134 9.73071 8.7665 5.41813L8.87246 5.2062C10.2853 2.27111 11.6663 0.0106201 14.9157 0.0106201C18.204 0.0106201 19.3343 1.95676 20.9237 5.2062L21.065 5.41813C23.2901 9.73071 25.6248 14.5342 28.1325 19.8711V19.9064ZM27.7087 25.8791C27.4614 27.5391 26.3312 28.9166 24.7771 29.5877C21.7749 30.8945 18.8045 28.8106 16.2614 25.985C20.468 20.7188 21.2451 16.6217 19.4402 13.9691C18.3806 12.4504 16.8619 11.7086 14.9157 11.7086C10.9952 11.7086 8.83714 15.0287 9.68482 18.8821C10.1793 20.966 11.4861 23.336 13.57 25.985C12.2632 27.4331 11.027 28.4574 9.93207 29.0932C9.08438 29.5523 8.27202 29.8349 7.49498 29.9055C3.92765 30.4353 1.13383 26.974 2.40535 23.4031C2.58195 22.944 2.93516 22.0963 3.5356 20.7894L3.57092 20.7188C5.51352 16.4768 7.8835 11.6733 10.6031 6.33645L10.6738 6.15985L11.4508 4.6764L11.5148 4.55955C12.0701 3.54546 12.3331 3.06521 13.2522 2.48656C13.7113 2.204 14.2764 2.06272 14.9122 2.06272C16.1837 2.06272 17.1727 2.80444 17.5965 3.40488C17.7642 3.65642 17.954 3.97431 18.1835 4.35855C18.244 4.45989 18.3072 4.56584 18.3736 4.6764L19.1153 6.12453L19.2212 6.33645C21.9409 11.6733 24.3109 16.4768 26.2535 20.7188L26.2888 20.7541L26.9952 22.3788L27.419 23.4031C27.744 24.219 27.8146 25.0314 27.7087 25.8791ZM14.9157 24.3603C13.1144 22.0998 12.0548 20.1183 11.7016 18.423C11.3484 17.0455 11.4897 15.9506 12.0901 15.1382C12.7259 14.1846 13.6795 13.7254 14.9157 13.7254C16.1519 13.7254 17.1056 14.1846 17.7413 15.1382C18.3418 15.9506 18.4831 17.0455 18.1299 18.423C17.7413 20.1537 16.6817 22.1316 14.9157 24.3603Z" fill="#FF5A5F"/>
</svg>
