<svg width="21" height="22" viewBox="0 0 21 22" fill="none" xmlns="http://www.w3.org/2000/svg">
<path fill-rule="evenodd" clip-rule="evenodd" d="M19.3411 13.6857C19.7053 14.4385 19.9967 15.0698 20.1667 15.604C21.4052 19.006 18.8555 21.9952 15.7692 21.9928C15.7449 21.9928 15.6477 21.9928 15.5264 21.9685H15.1864C13.5837 21.7742 11.9301 20.752 10.2545 18.9307C8.5791 20.7544 6.92542 21.7742 5.32275 21.9685H4.98279C4.86145 21.9928 4.76428 21.9928 4.73999 21.9928C1.65369 21.9928 -0.895996 19.006 0.342407 15.604C0.366699 15.5311 0.463867 15.2883 0.658081 14.827L1.16809 13.71V13.6614C2.89209 9.99231 4.49719 6.68994 6.02698 3.72498L6.09985 3.57935C7.07117 1.5614 8.02051 0.00732422 10.2545 0.00732422C12.5153 0.00732422 13.2924 1.34534 14.385 3.57935L14.4822 3.72498C16.012 6.68994 17.6171 9.99231 19.3411 13.6614V13.6857ZM19.0497 17.7919C18.8796 18.9331 18.1027 19.8801 17.0342 20.3414C14.9702 21.24 12.928 19.8073 11.1797 17.8646C14.0718 14.2441 14.606 11.4274 13.3651 9.60376C12.6366 8.55957 11.5925 8.04968 10.2545 8.04968C7.5592 8.04968 6.07544 10.3323 6.6582 12.9814C6.99817 14.4141 7.89673 16.0435 9.32935 17.8646C8.43091 18.8602 7.58105 19.5645 6.82825 20.0016C6.24548 20.3173 5.68701 20.5115 5.15271 20.5601C2.7002 20.9243 0.779419 18.5446 1.65369 16.0896C1.77502 15.7739 2.01782 15.1912 2.43066 14.2927L2.45496 14.2441C3.79053 11.3278 5.4198 8.02539 7.28955 4.35632L7.33813 4.23486L7.87244 3.21497L7.91626 3.13501C8.2981 2.43762 8.47888 2.10742 9.11084 1.70947C9.42651 1.51526 9.81494 1.41809 10.2521 1.41809C11.1262 1.41809 11.8062 1.92798 12.0975 2.34082C12.2112 2.51123 12.3395 2.72595 12.4941 2.98486L12.5015 2.99707L12.6317 3.21497L13.1417 4.21057L13.2146 4.35632C15.0844 8.02539 16.7136 11.3278 18.0492 14.2441L18.0735 14.2684L18.5592 15.3854L18.8506 16.0896C19.074 16.6505 19.1226 17.209 19.0497 17.7919ZM10.2546 16.7478C9.01624 15.1937 8.28772 13.8314 8.04492 12.6659C7.80212 11.7189 7.89917 10.9661 8.31201 10.4076C8.74915 9.75195 9.40479 9.43628 10.2546 9.43628C11.1045 9.43628 11.7601 9.75195 12.1973 10.4076C12.61 10.9661 12.7072 11.7189 12.4644 12.6659C12.1973 13.8557 11.4688 15.2156 10.2546 16.7478Z" fill="#767676"/>
</svg>
