<svg width="18" height="18" viewBox="0 0 18 18" fill="none" xmlns="http://www.w3.org/2000/svg">
<path fill-rule="evenodd" clip-rule="evenodd" d="M16.5 0H1.50001C0.659988 0 0 0.659988 0 1.50001V16.5C0 17.34 0.659988 18 1.50001 18H8.40002H12H16.5C17.34 18 18 17.34 18 16.5V1.50001C18 0.659988 17.34 0 16.5 0ZM9.0926 11.36H6.9V8.96521H9V6.95653C9 5.32088 10.2985 3.94349 11.8333 3.8H14.3V6H12.1074C11.6415 6 11.2852 6.46869 11.2852 6.95653V8.96521H14.0259V11.36H11.2852V17.2H9.0926V11.36ZM11.9286 17.2H16.3214C16.8193 17.2 17.2 16.8193 17.2 16.3214V1.67857C17.2 1.1807 16.8193 0.8 16.3215 0.8H1.67857C1.1807 0.8 0.8 1.1807 0.8 1.67857V16.3214C0.8 16.8193 1.1807 17.2 1.67857 17.2L8.41427 17.2V11.9286H6.0714V8.41427H8.41427V6.94997C8.41427 4.98784 9.93716 3.31855 11.8993 3.14284H15.15V6.65713H12.2214C12.0457 6.65713 11.9286 6.77426 11.9286 6.94997V8.41427H14.8571V11.9286H11.9286V17.2Z" fill="#484848"/>
</svg>
