<svg width="18" height="16" viewBox="0 0 18 16" fill="none" xmlns="http://www.w3.org/2000/svg">
<path fill-rule="evenodd" clip-rule="evenodd" d="M17.5303 2.09489C17.6525 2.06364 17.8053 2.09489 17.8969 2.18864C17.9885 2.28239 18.0191 2.43864 17.9885 2.56364C17.7136 3.46977 17.1637 4.12602 16.4915 4.46977V4.5634C16.4915 10.5942 12.0921 15.5 6.71486 15.5C3.6902 15.5 1.24611 14.9688 0.146254 14.0627C0.0239397 13.9377 -0.0370955 13.7814 0.0239397 13.5939C0.0850969 13.4377 0.237807 13.3127 0.421156 13.3127C2.22377 13.2814 3.38466 12.844 4.27064 12.3128C2.55983 12.094 1.49049 11.2504 0.940566 9.65678C0.879408 9.50053 0.940566 9.34428 1.06276 9.25053C1.18495 9.15678 1.3683 9.15678 1.49049 9.21928C1.94874 9.53178 2.407 9.59428 2.95692 9.59428C1.79591 8.87566 0.726698 7.68816 0.298964 6.21953C0.268324 6.06328 0.329482 5.8759 0.451674 5.8134C0.604384 5.71965 0.757216 5.7509 0.879408 5.84465C1.21547 6.12578 1.58217 6.31328 2.13209 6.40703C0.940566 5.15715 0.207289 3.31352 1.24599 1.28252L1.42934 0.907516L1.73476 1.22002C3.62904 3.25102 5.3705 4.18852 8.54799 4.8134V4.6884C8.54799 2.40739 10.2894 0.532516 12.4586 0.501266C13.314 0.501266 14.5055 1.12627 14.9944 1.40752C15.006 1.40752 15.0177 1.41203 15.0277 1.41594C15.0438 1.42229 15.0556 1.4268 15.0556 1.40752C15.6665 1.22002 16.3998 0.907516 17.2553 0.532516C17.3775 0.470016 17.5303 0.501266 17.6218 0.595016C17.7136 0.688766 17.7442 0.813766 17.683 0.970016C17.5303 1.40752 17.2859 1.87627 16.9192 2.31364L17.5303 2.09489ZM15.7355 4.23784L15.9133 4.17741C16.4765 3.96623 16.8025 3.51347 17.01 3.12126L15.854 3.5136C15.7058 3.5739 15.528 3.5136 15.4688 3.36272C15.4094 3.21172 15.4391 3.03069 15.5576 2.94011C16.0319 2.54778 16.3876 2.12529 16.6543 1.67265C16.0615 1.91399 15.528 2.12529 15.0834 2.27617C14.9055 2.33647 14.7277 2.30632 14.5498 2.21587L14.532 2.20598C14.1845 2.01274 13.0856 1.40141 12.4158 1.4312C10.6373 1.46135 9.21461 3.00053 9.21461 4.87163V5.7166L8.85902 5.6563C5.59852 5.05266 3.79054 4.17741 1.89357 2.27617C1.00429 4.56975 2.84205 6.16936 3.46449 6.62199L4.20546 7.16521H3.28663C2.69374 7.16521 2.04176 7.1049 1.44887 6.8333C2.10097 8.22148 3.43483 9.2476 4.56117 9.57964L4.47218 10.1832C4.23512 10.1832 3.99794 10.1832 3.76088 10.2133C3.13844 10.2436 2.57521 10.2436 2.04176 10.0624C2.63454 11.2093 3.67201 11.6922 5.36146 11.6922H6.25062L5.50966 12.2354C4.59083 12.9596 3.40517 13.6236 1.36 13.7746C2.33815 14.2574 4.14613 14.7101 6.8434 14.7101C11.4647 14.7101 15.7355 9.99907 15.7355 4.7509V4.23784Z" fill="#484848"/>
</svg>
